<svg width="100" height="100" viewBox="0 0 100 100" fill="none" xmlns="http://www.w3.org/2000/svg">
  <defs>
    <linearGradient id="dropletGrad" x1="0%" y1="0%" x2="100%" y2="100%">
      <stop offset="0%" stopColor="#0070F3" />
      <stop offset="50%" stopColor="#38BDF8" />
      <stop offset="100%" stopColor="#00C2FF" />
    </linearGradient>
  </defs>
  
  <!-- Outer Droplet Outline -->
  <path 
    d="M50 8 C68 35, 82 55, 82 70 A 32 32 0 0 1 18 70 C18 55, 32 35, 50 8 Z" 
    stroke="url(#dropletGrad)" 
    strokeWidth="6" 
    fill="none" 
  />
  
  <!-- Top half of 'S' (White) -->
  <path 
    d="M58 38 C58 32, 42 32, 42 42 C42 47, 50 48, 50 48" 
    stroke="#FFFFFF" 
    strokeWidth="7" 
    strokeLinecap="round" 
    fill="none" 
  />
  
  <!-- Bottom half of 'S' (Vibrant Blue) -->
  <path 
    d="M50 48 C50 48, 58 49, 58 54 C58 64, 42 64, 42 58" 
    stroke="#0070F3" 
    strokeWidth="7" 
    strokeLinecap="round" 
    fill="none" 
  />
  
  <!-- Base waves -->
  <path 
    d="M28 72 C35 69, 41 75, 50 72 C59 69, 65 75, 72 72" 
    stroke="#38BDF8" 
    strokeWidth="4" 
    strokeLinecap="round" 
    fill="none" 
  />
  <path 
    d="M24 78 C32 75, 40 81, 50 78 C60 75, 68 81, 76 78" 
    stroke="#0070F3" 
    strokeWidth="4" 
    strokeLinecap="round" 
    fill="none" 
  />
</svg>